<?xml version="1.0" ?><!DOCTYPE svg  PUBLIC '-//W3C//DTD SVG 1.1//EN'  'http://www.w3.org/Graphics/SVG/1.1/DTD/svg11.dtd'><svg height="512px" style="enable-background:new 0 0 512 512;" version="1.1" viewBox="0 0 512 512" width="512px" xml:space="preserve" xmlns="http://www.w3.org/2000/svg" xmlns:xlink="http://www.w3.org/1999/xlink"><g id="_x31_015_x2C__beanch_x2C__umbrella_x2C__bench_x2C__enjoy_x2C__summer"><g id="XMLID_403_"><path d="M243.103,114.076c-17.192,29.892-26.935,69.382-27.603,111.636h50.961    c0.253-43.387,4.024-84.048,10.688-114.941c3.989-18.496,8.699-32.174,14.085-40.973    C273.23,75.491,256.536,90.718,243.103,114.076z" id="XMLID_404_"/><path d="M235.023,109.43c8.646-15.031,18.642-26.992,29.545-35.594    c-61.823,19.425-107.454,79.883-109.348,151.876h50.961C206.855,181.842,217.036,140.704,235.023,109.43z" id="XMLID_405_"/><path d="M117.882,109.217c0-17.985-14.633-32.618-32.619-32.618c-17.985,0-32.618,14.633-32.618,32.618    s14.633,32.619,32.618,32.619C103.249,141.836,117.882,127.202,117.882,109.217z" id="XMLID_406_"/><path d="M376.422,300.269l-62.83,79.271v-0.055V225.712h25.204c-0.25-42.74-3.949-82.703-10.479-112.977    c-5.372-24.903-11.407-37.127-15.991-42.28c0.779-0.834,1.266-1.945,1.266-3.176V48.64c0-2.573-2.086-4.66-4.659-4.66    c-2.574,0-4.66,2.087-4.66,4.66v18.64c0,0.396,0.064,0.776,0.158,1.144c-4.715,3.425-11.896,15.221-18.172,44.313    c-6.53,30.273-10.229,70.236-10.479,112.977h28.492v153.772v4.66H125.283l-41.421,74.557h26.637l24.927-44.226    c0.826-1.466,2.378-2.372,4.06-2.372h164.787v51.258c0,2.573,2.086,4.659,4.66,4.659c2.573,0,4.659-2.086,4.659-4.659v-51.258    h4.65l32.866,49.255c1.146,1.717,3.167,2.668,5.243,2.668c1.068,0,2.153-0.253,3.136-0.784c2.893-1.56,3.83-4.934,2.095-7.533    l-32.706-49.017l73.678-106.424H376.422z" id="XMLID_407_"/><path d="M350.009,73.836c10.902,8.603,20.898,20.563,29.544,35.594c17.988,31.274,28.167,72.412,28.842,116.282    h50.961C457.461,153.719,411.831,93.261,350.009,73.836z" id="XMLID_408_"/><path d="M348.114,225.712h50.962c-0.669-42.254-10.41-81.744-27.603-111.636    c-13.435-23.358-30.128-38.585-48.131-44.278c5.386,8.799,10.096,22.477,14.084,40.973    C344.09,141.664,347.862,182.325,348.114,225.712z" id="XMLID_409_"/></g></g><g id="Layer_1"/></svg>